<svg xmlns="http://www.w3.org/2000/svg" xmlns:xlink="http://www.w3.org/1999/xlink" contentStyleType="text/css" data-diagram-type="DESCRIPTION" height="771px" preserveAspectRatio="none" style="width:539px;height:771px;background:#FFFFFF;" version="1.1" viewBox="0 0 539 771" width="539px" zoomAndPan="magnify"><defs/><g><!--cluster Sistema Sleep Well--><g id="cluster_Sistema Sleep Well"><rect fill="#FFFFFF" fill-opacity="0.00000" height="758" rx="2.5" ry="2.5" style="stroke:#181818;stroke-width:1;" width="317.89" x="216.08" y="7"/><text fill="#000000" font-family="sans-serif" font-size="14" font-weight="bold" lengthAdjust="spacing" textLength="151.6143" x="299.2179" y="21.9951">Sistema Sleep Well</text></g><g id="elem_RF01"><ellipse cx="375.0296" cy="231.9999" fill="#F1F1F1" rx="72.2496" ry="16.8499" style="stroke:#181818;stroke-width:0.5;"/><text fill="#000000" font-family="sans-serif" font-size="14" lengthAdjust="spacing" textLength="98.8477" x="322.6058" y="235.7475">Realizar Login</text></g><g id="elem_RF02"><ellipse cx="375.0268" cy="302.9974" fill="#F1F1F1" rx="83.2868" ry="19.0574" style="stroke:#181818;stroke-width:0.5;"/><text fill="#000000" font-family="sans-serif" font-size="14" lengthAdjust="spacing" textLength="126.3486" x="311.3561" y="306.0126">Cadastrar Usu&#225;rio</text></g><g id="elem_RF03"><ellipse cx="375.0285" cy="380.0037" fill="#F1F1F1" rx="104.7185" ry="23.3437" style="stroke:#181818;stroke-width:0.5;"/><text fill="#000000" font-family="sans-serif" font-size="14" lengthAdjust="spacing" textLength="174.4053" x="287.8259" y="382.8504">Monitorar Ciclos de Sono</text></g><g id="elem_RF04"><ellipse cx="375.0269" cy="467.9954" fill="#F1F1F1" rx="137.9769" ry="29.9954" style="stroke:#181818;stroke-width:0.5;"/><text fill="#000000" font-family="sans-serif" font-size="14" lengthAdjust="spacing" textLength="245.3623" x="252.3458" y="470.8421">Configurar Despertador Inteligente</text></g><g id="elem_RF05"><ellipse cx="375.0286" cy="69.0037" fill="#F1F1F1" rx="124.2686" ry="27.2537" style="stroke:#181818;stroke-width:0.5;"/><text fill="#000000" font-family="sans-serif" font-size="14" lengthAdjust="spacing" textLength="216.4395" x="266.8089" y="71.8504">Acompanhar Hist&#243;rico de Sono</text></g><g id="elem_RF06"><ellipse cx="375.0346" cy="155.9969" fill="#F1F1F1" rx="110.6846" ry="24.5369" style="stroke:#181818;stroke-width:0.5;"/><text fill="#000000" font-family="sans-serif" font-size="14" lengthAdjust="spacing" textLength="187.3594" x="281.3549" y="158.8436">Registrar Di&#225;rio de Sonhos</text></g><g id="elem_RF07"><ellipse cx="375.0252" cy="638.999" fill="#F1F1F1" rx="142.9452" ry="30.989" style="stroke:#181818;stroke-width:0.5;"/><text fill="#000000" font-family="sans-serif" font-size="14" lengthAdjust="spacing" textLength="255.7666" x="247.1419" y="641.8457">Receber Dicas para Melhorar o Sono</text></g><g id="elem_RF08"><ellipse cx="375.0326" cy="727.0045" fill="#F1F1F1" rx="95.8226" ry="21.5645" style="stroke:#181818;stroke-width:0.5;"/><text fill="#000000" font-family="sans-serif" font-size="14" lengthAdjust="spacing" textLength="154.8066" x="297.6293" y="729.8512">Notifica&#231;&#227;o de Alarme</text></g><g id="elem_RF09"><ellipse cx="375.0318" cy="553.0044" fill="#F1F1F1" rx="87.4718" ry="19.8944" style="stroke:#181818;stroke-width:0.5;"/><text fill="#000000" font-family="sans-serif" font-size="14" lengthAdjust="spacing" textLength="135.9941" x="307.0348" y="555.851">Lembretes de Sono</text></g><!--entity Usuario--><g id="elem_Usuario"><ellipse cx="55.5421" cy="350.35" fill="#F1F1F1" rx="8" ry="8" style="stroke:#181818;stroke-width:0.5;"/><path d="M55.5421,358.35 L55.5421,385.35 M42.5421,366.35 L68.5421,366.35 M55.5421,385.35 L42.5421,400.35 M55.5421,385.35 L68.5421,400.35 " fill="#FFFFFF" fill-opacity="0.00000" style="stroke:#181818;stroke-width:0.5;"/><text fill="#000000" font-family="sans-serif" font-size="14" lengthAdjust="spacing" textLength="53.2041" x="28.94" y="414.8451">Usu&#225;rio</text></g><!--entity Admin--><g id="elem_Admin"><ellipse cx="55.54" cy="621.35" fill="#F1F1F1" rx="8" ry="8" style="stroke:#181818;stroke-width:0.5;"/><path d="M55.54,629.35 L55.54,656.35 M42.54,637.35 L68.54,637.35 M55.54,656.35 L42.54,671.35 M55.54,656.35 L68.54,671.35 " fill="#FFFFFF" fill-opacity="0.00000" style="stroke:#181818;stroke-width:0.5;"/><text fill="#000000" font-family="sans-serif" font-size="14" lengthAdjust="spacing" textLength="99.0801" x="6" y="685.8451">Administrador</text></g><!--link Usuario to RF01--><g id="link_Usuario_RF01"><path d="M82.64,354.53 C111.1,328.24 159.16,288.05 208.08,266 C239.45,251.86 276.81,243.54 308.13,238.68 " fill="#FFFFFF" fill-opacity="0.00000" id="Usuario-RF01" style="stroke:#181818;stroke-width:1;"/></g><!--link Usuario to RF02--><g id="link_Usuario_RF02"><path d="M82.5,370.61 C97.7,365.31 117.34,358.81 135.08,354 C193.31,338.2 260.61,324.21 308.91,314.9 " fill="#FFFFFF" fill-opacity="0.00000" id="Usuario-RF02" style="stroke:#181818;stroke-width:1;"/></g><!--link Usuario to RF03--><g id="link_Usuario_RF03"><path d="M82.52,380 C123.1,380 203.73,380 269.92,380 " fill="#FFFFFF" fill-opacity="0.00000" id="Usuario-RF03" style="stroke:#181818;stroke-width:1;"/></g><!--link Usuario to RF04--><g id="link_Usuario_RF04"><path d="M82.52,387.2 C126.95,399.52 219.39,425.14 288.33,444.25 " fill="#FFFFFF" fill-opacity="0.00000" id="Usuario-RF04" style="stroke:#181818;stroke-width:1;"/></g><!--link Usuario to RF05--><g id="link_Usuario_RF05"><path d="M66.31,341.37 C83.69,281.43 126.12,167.35 208.08,114 C227.97,101.05 251.51,91.81 274.51,85.21 " fill="#FFFFFF" fill-opacity="0.00000" id="Usuario-RF05" style="stroke:#181818;stroke-width:1;"/></g><!--link Usuario to RF06--><g id="link_Usuario_RF06"><path d="M76.58,341.44 C101.22,298.39 147.36,230.5 208.08,198 C231.4,185.52 258.56,176.64 284.07,170.36 " fill="#FFFFFF" fill-opacity="0.00000" id="Usuario-RF06" style="stroke:#181818;stroke-width:1;"/></g><!--link Usuario to RF07--><g id="link_Usuario_RF07"><path d="M82.5,417.26 C97.53,438.53 117,465.53 135.08,489 C162.83,525.02 177.54,528.51 200.08,568 C205.24,577.04 200.5,582.87 208.08,590 C222.52,603.58 240.55,613.42 259.35,620.53 " fill="#FFFFFF" fill-opacity="0.00000" id="Usuario-RF07" style="stroke:#181818;stroke-width:1;"/></g><!--link Usuario to RF08--><g id="link_Usuario_RF08"><path d="M63.62,418.58 C73.41,463.39 94.64,537.71 135.08,589 C156.68,616.4 181.51,603.47 200.08,633 C213,653.54 191.71,669.09 208.08,687 C226.58,707.23 253.37,718.06 280.06,723.65 " fill="#FFFFFF" fill-opacity="0.00000" id="Usuario-RF08" style="stroke:#181818;stroke-width:1;"/></g><!--link Usuario to RF09--><g id="link_Usuario_RF09"><path d="M82.47,396.41 C119.32,420.19 184.14,463.92 200.08,487 C207.43,497.65 198.69,506.09 208.08,515 C229.53,535.34 259.54,545.58 288.15,550.52 " fill="#FFFFFF" fill-opacity="0.00000" id="Usuario-RF09" style="stroke:#181818;stroke-width:1;"/></g><!--link Admin to RF07--><g id="link_Admin_RF07"><path d="M105.45,649.15 C139.89,647.85 187.86,646.04 233.74,644.3 " fill="#FFFFFF" fill-opacity="0.00000" id="Admin-RF07" style="stroke:#181818;stroke-width:1;"/><text fill="#000000" font-family="sans-serif" font-size="13" lengthAdjust="spacing" textLength="58.3794" x="138.58" y="641.0669">Gerencia</text></g><!--link Admin to RF08--><g id="link_Admin_RF08"><path d="M105.49,664.37 C115.28,666.96 125.49,669.62 135.08,672 C192.29,686.23 257.54,701.16 305.38,711.87 " fill="#FFFFFF" fill-opacity="0.00000" id="Admin-RF08" style="stroke:#181818;stroke-width:1;"/><text fill="#000000" font-family="sans-serif" font-size="13" lengthAdjust="spacing" textLength="63.2607" x="136.08" y="668.0669">Configura</text></g><!--link Admin to RF09--><g id="link_Admin_RF09"><path d="M105.34,629.49 C134.72,617.09 173.08,601.87 208.08,591 C240.26,581.01 276.69,572.38 307.2,565.88 " fill="#FFFFFF" fill-opacity="0.00000" id="Admin-RF09" style="stroke:#181818;stroke-width:1;"/><text fill="#000000" font-family="sans-serif" font-size="13" lengthAdjust="spacing" textLength="40.5806" x="147.58" y="589.0669">Ajusta</text></g><!--SRC=[PP9DReCm48NtFiM8VQGs_-aE9UgFb7IHgEfw0XEOojZ8DfjMFKpLHG_G8t2n6X8YsMK3Z_dUZ1-3f9C3fy5mKJh8sL3cM2iXC7FQGF9Yc_RBi4u0BNY1_dcefNd5Ygqpc6lJ0_qR8Recg0f9a1nydIg4WoIguPMaJE13WByQInbQZ-m99R-ZWQqkMFLzzlStjo6qnXoxIGQ24tbm788xhTYVpeDhpgIsa1CSjBhYawYlLYSkcexVaAt9k2uCF2b7aWlojy4u3OrffgiQLUcDZpvZ-siuq_6mMPoqu7E83VSPBdofxU2OnuwCZjJnNaED1c57ikppwM3K8ZG-QySdRsf_skz-J2hHLDSmov3UKdKqvEZVrrg9Jo4kQuVHwBoOK8yZFOdqDDApICyZlOZqCj8h8VhVRC3X3Xx8aCeOWyBI5wxR3IehNqdV6klm3m00]--></g></svg>